<svg xmlns:inkscape="http://www.inkscape.org/namespaces/inkscape" xmlns:sodipodi="http://sodipodi.sourceforge.net/DTD/sodipodi-0.dtd" xmlns="http://www.w3.org/2000/svg" xmlns:svg="http://www.w3.org/2000/svg" version="1.1" id="svg1" inkscape:version="1.4.2 (ebf0e940, 2025-05-08)" sodipodi:docname="tentang.svg" viewBox="15.73 9.09 95.02 23.9">
  <sodipodi:namedview id="namedview1" pagecolor="#ffffff" bordercolor="#000000" borderopacity="0.25" inkscape:showpageshadow="2" inkscape:pageopacity="0.0" inkscape:pagecheckerboard="0" inkscape:deskcolor="#d1d1d1" inkscape:document-units="mm" inkscape:zoom="0.37608804" inkscape:cx="695.31591" inkscape:cy="510.51876" inkscape:window-width="1480" inkscape:window-height="625" inkscape:window-x="0" inkscape:window-y="38" inkscape:window-maximized="0" inkscape:current-layer="layer1"/>
  <defs id="defs1"/>
  <g inkscape:label="Layer 1" inkscape:groupmode="layer" id="layer1">
    <g style="fill:#1a6e96;fill-opacity:1" id="g806" transform="matrix(0.35277777,0,0,0.35277777,-10.044304,-279.28711)">
      <g transform="translate(72.333101,884.8988)" id="g805">
        <path style="stroke:none" d="M 22.46875,-5.578125 H 10.671875 L 8.78125,0 h -8.0625 l 11.4375,-31.59375 H 21.0625 L 32.5,0 h -8.140625 z m -1.984375,-5.953125 -3.921875,-11.5625 -3.875,11.5625 z m 0,0" id="path804"/>
      </g>
    </g>
    <g style="fill:#1a6e96;fill-opacity:1" id="g808" transform="matrix(0.35277777,0,0,0.35277777,-10.044304,-279.28711)">
      <g transform="translate(105.95805,884.8988)" id="g807">
        <path style="stroke:none" d="m 14.21875,0.3125 c -2.304688,0 -4.371094,-0.375 -6.203125,-1.125 C 6.179688,-1.5625 4.71875,-2.671875 3.625,-4.140625 2.53125,-5.609375 1.953125,-7.378906 1.890625,-9.453125 h 8.1875 c 0.125,1.167969 0.53125,2.058594 1.21875,2.671875 0.6875,0.617188 1.585937,0.921875 2.703125,0.921875 1.132812,0 2.03125,-0.257813 2.6875,-0.78125 0.664062,-0.519531 1,-1.25 1,-2.1875 0,-0.78125 -0.265625,-1.425781 -0.796875,-1.9375 -0.523437,-0.507813 -1.167969,-0.925781 -1.9375,-1.25 -0.761719,-0.332031 -1.84375,-0.707031 -3.25,-1.125 -2.042969,-0.632813 -3.710937,-1.265625 -5,-1.890625 -1.292969,-0.632812 -2.402344,-1.566406 -3.328125,-2.796875 -0.929688,-1.226563 -1.390625,-2.832031 -1.390625,-4.8125 0,-2.9375 1.0625,-5.238281 3.1875,-6.90625 2.132813,-1.664063 4.910156,-2.5 8.328125,-2.5 3.476562,0 6.285156,0.835937 8.421875,2.5 2.132813,1.667969 3.273437,3.984375 3.421875,6.953125 h -8.328125 c -0.0625,-1.019531 -0.4375,-1.820312 -1.125,-2.40625 -0.6875,-0.59375 -1.574219,-0.890625 -2.65625,-0.890625 -0.929687,0 -1.679687,0.25 -2.25,0.75 C 10.410156,-24.648438 10.125,-23.9375 10.125,-23 c 0,1.023438 0.476562,1.820312 1.4375,2.390625 0.96875,0.5625 2.472656,1.179687 4.515625,1.84375 2.03125,0.6875 3.679687,1.351563 4.953125,1.984375 1.28125,0.625 2.382812,1.539062 3.3125,2.734375 0.9375,1.199219 1.40625,2.746094 1.40625,4.640625 0,1.804688 -0.460938,3.4375 -1.375,4.90625 -0.917969,1.46875 -2.246094,2.640625 -3.984375,3.515625 C 18.648438,-0.117188 16.59375,0.3125 14.21875,0.3125 Z m 0,0" id="path806"/>
      </g>
    </g>
    <g style="fill:#1a6e96;fill-opacity:1" id="g810" transform="matrix(0.35277777,0,0,0.35277777,-10.044304,-279.28711)">
      <g transform="translate(134.09138,884.8988)" id="g809">
        <path style="stroke:none" d="m 31.0625,0 h -7.703125 l -12.875,-19.484375 V 0 h -7.6875 v -31.59375 h 7.6875 l 12.875,19.578125 V -31.59375 H 31.0625 Z m 0,0" id="path808"/>
      </g>
    </g>
    <g style="fill:#1a6e96;fill-opacity:1" id="g814" transform="matrix(0.35277777,0,0,0.35277777,-10.044304,-279.28711)">
      <g transform="translate(178.38454,884.8988)" id="g813">
        <path style="stroke:none" d="m 1.484375,-15.84375 c 0,-3.125 0.671875,-5.90625 2.015625,-8.34375 1.351562,-2.445312 3.238281,-4.351562 5.65625,-5.71875 2.414062,-1.375 5.15625,-2.0625 8.21875,-2.0625 3.75,0 6.957031,0.996094 9.625,2.984375 2.675781,1.980469 4.460938,4.679687 5.359375,8.09375 H 23.90625 c -0.636719,-1.320313 -1.53125,-2.328125 -2.6875,-3.015625 -1.15625,-0.6875 -2.46875,-1.03125 -3.9375,-1.03125 -2.367188,0 -4.289062,0.828125 -5.765625,2.484375 -1.46875,1.648437 -2.203125,3.851563 -2.203125,6.609375 0,2.761719 0.734375,4.96875 2.203125,6.625 1.476563,1.648438 3.398437,2.46875 5.765625,2.46875 1.46875,0 2.78125,-0.34375 3.9375,-1.03125 1.15625,-0.695312 2.050781,-1.703125 2.6875,-3.015625 h 8.453125 C 31.460938,-7.378906 29.675781,-4.6875 27,-2.71875 c -2.667969,1.960938 -5.875,2.9375 -9.625,2.9375 -3.0625,0 -5.804688,-0.679688 -8.21875,-2.046875 C 6.738281,-3.191406 4.851562,-5.085938 3.5,-7.515625 2.15625,-9.941406 1.484375,-12.71875 1.484375,-15.84375 Z m 0,0" id="path812"/>
      </g>
    </g>
    <g style="fill:#1a6e96;fill-opacity:1" id="g816" transform="matrix(0.35277777,0,0,0.35277777,-10.044304,-279.28711)">
      <g transform="translate(213.13482,884.8988)" id="g815">
        <path style="stroke:none" d="M 17.734375,0.3125 C 14.765625,0.3125 12.039062,-0.375 9.5625,-1.75 7.09375,-3.132812 5.128906,-5.0625 3.671875,-7.53125 c -1.460937,-2.476562 -2.1875,-5.265625 -2.1875,-8.359375 0,-3.09375 0.726563,-5.867187 2.1875,-8.328125 1.457031,-2.457031 3.421875,-4.375 5.890625,-5.75 2.476562,-1.382812 5.203125,-2.078125 8.171875,-2.078125 2.96875,0 5.691406,0.695313 8.171875,2.078125 2.476562,1.375 4.425781,3.292969 5.84375,5.75 1.425781,2.460938 2.140625,5.234375 2.140625,8.328125 0,3.09375 -0.71875,5.882813 -2.15625,8.359375 -1.4375,2.46875 -3.390625,4.398438 -5.859375,5.78125 -2.460938,1.375 -5.171875,2.0625 -8.140625,2.0625 z m 0,-7.015625 c 2.519531,0 4.535156,-0.835937 6.046875,-2.515625 1.519531,-1.6875 2.28125,-3.910156 2.28125,-6.671875 0,-2.789063 -0.761719,-5.019531 -2.28125,-6.6875 -1.511719,-1.664063 -3.527344,-2.5 -6.046875,-2.5 -2.554687,0 -4.589844,0.828125 -6.109375,2.484375 -1.511719,1.648438 -2.265625,3.882812 -2.265625,6.703125 0,2.792969 0.753906,5.023437 2.265625,6.6875 1.519531,1.667969 3.554688,2.5 6.109375,2.5 z m 0,0" id="path814"/>
      </g>
    </g>
    <g style="fill:#1a6e96;fill-opacity:1" id="g818" transform="matrix(0.35277777,0,0,0.35277777,-10.044304,-279.28711)">
      <g transform="translate(248.96541,884.8988)" id="g817">
        <path style="stroke:none" d="m 18.90625,0 -6.578125,-11.921875 h -1.84375 V 0 h -7.6875 v -31.59375 h 12.90625 c 2.5,0 4.625,0.4375 6.375,1.3125 1.757813,0.867188 3.070313,2.058594 3.9375,3.578125 0.875,1.511719 1.3125,3.195313 1.3125,5.046875 0,2.105469 -0.59375,3.984375 -1.78125,5.640625 -1.1875,1.648437 -2.9375,2.8125 -5.25,3.5 L 27.59375,0 Z m -8.421875,-17.375 h 4.78125 c 1.40625,0 2.457031,-0.34375 3.15625,-1.03125 0.707031,-0.695312 1.0625,-1.675781 1.0625,-2.9375 0,-1.195312 -0.355469,-2.140625 -1.0625,-2.828125 -0.699219,-0.6875 -1.75,-1.03125 -3.15625,-1.03125 h -4.78125 z m 0,0" id="path816"/>
      </g>
    </g>
    <g style="fill:#1a6e96;fill-opacity:1" id="g820" transform="matrix(0.35277777,0,0,0.35277777,-10.044304,-279.28711)">
      <g transform="translate(278.76424,884.8988)" id="g819">
        <path style="stroke:none" d="m 26.875,-21.421875 c 0,1.824219 -0.421875,3.496094 -1.265625,5.015625 -0.835937,1.511719 -2.125,2.734375 -3.875,3.671875 -1.742187,0.929687 -3.898437,1.390625 -6.46875,1.390625 h -4.78125 V 0 h -7.6875 v -31.59375 h 12.46875 c 2.519531,0 4.648437,0.4375 6.390625,1.3125 1.738281,0.867188 3.039062,2.0625 3.90625,3.59375 0.875,1.523438 1.3125,3.277344 1.3125,5.265625 z m -12.203125,3.953125 c 1.46875,0 2.5625,-0.34375 3.28125,-1.03125 0.726563,-0.6875 1.09375,-1.660156 1.09375,-2.921875 0,-1.257813 -0.367187,-2.234375 -1.09375,-2.921875 -0.71875,-0.695312 -1.8125,-1.046875 -3.28125,-1.046875 h -4.1875 v 7.921875 z m 0,0" id="path818"/>
      </g>
    </g>
    <g style="fill:#1a6e96;fill-opacity:1" id="g822" transform="matrix(0.35277777,0,0,0.35277777,-10.044304,-279.28711)">
      <g transform="translate(307.30267,884.8988)" id="g821">
        <path style="stroke:none" d="m 10.359375,-31.59375 v 18.90625 c 0,1.886719 0.460937,3.339844 1.390625,4.359375 0.925781,1.023437 2.289062,1.53125 4.09375,1.53125 1.800781,0 3.179688,-0.507813 4.140625,-1.53125 0.957031,-1.019531 1.4375,-2.472656 1.4375,-4.359375 V -31.59375 H 29.125 v 18.859375 c 0,2.8125 -0.601562,5.199219 -1.796875,7.15625 -1.199219,1.949219 -2.8125,3.417969 -4.84375,4.40625 -2.023437,0.992187 -4.28125,1.484375 -6.78125,1.484375 -2.492187,0 -4.71875,-0.484375 -6.6875,-1.453125 C 7.054688,-2.117188 5.503906,-3.59375 4.359375,-5.5625 3.222656,-7.53125 2.65625,-9.921875 2.65625,-12.734375 V -31.59375 Z m 0,0" id="path820"/>
      </g>
    </g>
    <g style="fill:#545454;fill-opacity:1" id="g826" transform="matrix(0.35277777,0,0,0.35277777,-10.044304,-279.28711)">
      <g transform="translate(218.69667,835.93392)" id="g825">
        <path style="stroke:none" d="m 14.765625,-18.28125 v 3.578125 H 9.921875 V 0 H 5.46875 V -14.703125 H 0.625 v -3.578125 z m 0,0" id="path824"/>
      </g>
    </g>
    <g style="fill:#545454;fill-opacity:1" id="g828" transform="matrix(0.35277777,0,0,0.35277777,-10.044304,-279.28711)">
      <g transform="translate(234.33856,835.93392)" id="g827">
        <path style="stroke:none" d="m 6.0625,-14.703125 v 3.6875 h 5.96875 v 3.4375 H 6.0625 V -3.5625 h 6.75 V 0 H 1.609375 V -18.28125 H 12.8125 v 3.578125 z m 0,0" id="path826"/>
      </g>
    </g>
    <g style="fill:#545454;fill-opacity:1" id="g830" transform="matrix(0.35277777,0,0,0.35277777,-10.044304,-279.28711)">
      <g transform="translate(248.67913,835.93392)" id="g829">
        <path style="stroke:none" d="M 17.96875,0 H 13.515625 L 6.0625,-11.265625 V 0 H 1.609375 V -18.28125 H 6.0625 l 7.453125,11.328125 V -18.28125 h 4.453125 z m 0,0" id="path828"/>
      </g>
    </g>
    <g style="fill:#545454;fill-opacity:1" id="g832" transform="matrix(0.35277777,0,0,0.35277777,-10.044304,-279.28711)">
      <g transform="translate(268.51126,835.93392)" id="g831">
        <path style="stroke:none" d="m 14.765625,-18.28125 v 3.578125 H 9.921875 V 0 H 5.46875 V -14.703125 H 0.625 v -3.578125 z m 0,0" id="path830"/>
      </g>
    </g>
    <g style="fill:#545454;fill-opacity:1" id="g834" transform="matrix(0.35277777,0,0,0.35277777,-10.044304,-279.28711)">
      <g transform="translate(284.15315,835.93392)" id="g833">
        <path style="stroke:none" d="m 12.984375,-3.234375 h -6.8125 L 5.078125,0 H 0.421875 L 7.03125,-18.28125 H 12.1875 L 18.796875,0 h -4.71875 z M 11.84375,-6.65625 9.578125,-13.359375 7.34375,-6.65625 Z m 0,0" id="path832"/>
      </g>
    </g>
    <g style="fill:#545454;fill-opacity:1" id="g836" transform="matrix(0.35277777,0,0,0.35277777,-10.044304,-279.28711)">
      <g transform="translate(303.59488,835.93392)" id="g835">
        <path style="stroke:none" d="M 17.96875,0 H 13.515625 L 6.0625,-11.265625 V 0 H 1.609375 V -18.28125 H 6.0625 l 7.453125,11.328125 V -18.28125 h 4.453125 z m 0,0" id="path834"/>
      </g>
    </g>
    <g style="fill:#545454;fill-opacity:1" id="g838" transform="matrix(0.35277777,0,0,0.35277777,-10.044304,-279.28711)">
      <g transform="translate(323.42702,835.93392)" id="g837">
        <path style="stroke:none" d="m 13.75,-12.5 c -0.335938,-0.601562 -0.808594,-1.066406 -1.421875,-1.390625 -0.617187,-0.320313 -1.339844,-0.484375 -2.171875,-0.484375 -1.449219,0 -2.605469,0.476562 -3.46875,1.421875 -0.867188,0.949219 -1.296875,2.214844 -1.296875,3.796875 0,1.679688 0.453125,2.992188 1.359375,3.9375 0.914062,0.949219 2.171875,1.421875 3.765625,1.421875 1.09375,0 2.015625,-0.273437 2.765625,-0.828125 0.757812,-0.5625 1.3125,-1.363281 1.65625,-2.40625 H 9.296875 v -3.28125 h 9.6875 v 4.140625 c -0.335937,1.117187 -0.898437,2.152344 -1.6875,3.109375 C 16.503906,-2.113281 15.5,-1.34375 14.28125,-0.75 13.070312,-0.164062 11.703125,0.125 10.171875,0.125 8.367188,0.125 6.757812,-0.265625 5.34375,-1.046875 3.9375,-1.835938 2.835938,-2.9375 2.046875,-4.34375 1.253906,-5.75 0.859375,-7.351562 0.859375,-9.15625 c 0,-1.8125 0.394531,-3.421875 1.1875,-4.828125 0.789063,-1.414063 1.882813,-2.519531 3.28125,-3.3125 1.40625,-0.789063 3.015625,-1.1875 4.828125,-1.1875 2.1875,0 4.03125,0.53125 5.53125,1.59375 1.5,1.054687 2.492188,2.515625 2.984375,4.390625 z m 0,0" id="path836"/>
      </g>
    </g>
  </g>
</svg>